<?xml version="1.0" standalone="no"?><!DOCTYPE svg PUBLIC "-//W3C//DTD SVG 1.1//EN" "http://www.w3.org/Graphics/SVG/1.1/DTD/svg11.dtd"><svg t="1728477538095" class="icon" viewBox="0 0 1024 1024" version="1.1" xmlns="http://www.w3.org/2000/svg" p-id="6126" xmlns:xlink="http://www.w3.org/1999/xlink" width="200" height="200"><path d="M945.152 0H78.848C34.816 0 0 34.816 0 78.848v708.608c0 43.008 34.816 78.848 78.848 78.848h315.392v78.848H275.456c-21.504 0-38.912 17.408-38.912 38.912 0 21.504 17.408 38.912 38.912 38.912h473.088c21.504 0 38.912-17.408 38.912-38.912 0-21.504-17.408-38.912-38.912-38.912H629.76v-78.848h315.392c43.008 0 78.848-34.816 78.848-78.848V78.848c0-44.032-34.816-78.848-78.848-78.848zM550.912 945.152h-78.848v-78.848h78.848v78.848z m394.24-157.696H78.848V78.848h866.304v708.608z m-692.224-368.64l82.944-82.944c15.36-15.36 15.36-39.936 0-55.296-7.168-7.168-17.408-11.264-27.648-11.264-10.24 0-20.48 4.096-27.648 11.264L176.128 384c-11.264 7.168-18.432 19.456-18.432 32.768v1.024c0 10.24 3.072 20.48 11.264 28.672 2.048 2.048 4.096 4.096 7.168 5.12l104.448 104.448c15.36 15.36 39.936 15.36 55.296 0 15.36-15.36 15.36-39.936 0-55.296l-82.944-81.92z m602.112-14.336c-2.048-2.048-4.096-4.096-7.168-5.12L743.424 294.912c-7.168-7.168-17.408-11.264-27.648-11.264-21.504 0-38.912 17.408-38.912 38.912 0 10.24 4.096 20.48 11.264 27.648l82.944 82.944-82.944 82.944c-15.36 15.36-15.36 39.936 0 55.296 15.36 15.36 39.936 15.36 55.296 0l104.448-104.448c2.048-1.024 4.096-3.072 6.144-5.12 8.192-8.192 11.264-18.432 11.264-28.672 1.024-10.24-2.048-20.48-10.24-28.672zM610.304 263.168c-6.144-3.072-12.288-5.12-19.456-5.12-14.336 0-26.624 7.168-33.792 19.456L399.36 549.888c-10.24 18.432-4.096 43.008 14.336 53.248 18.432 10.24 43.008 4.096 53.248-14.336L624.64 316.416c11.264-18.432 5.12-43.008-14.336-53.248z" fill="#108EE9" p-id="6127"></path></svg>