<?xml version="1.0" standalone="no"?><!DOCTYPE svg PUBLIC "-//W3C//DTD SVG 1.1//EN" "http://www.w3.org/Graphics/SVG/1.1/DTD/svg11.dtd"><svg t="1728477689902" class="icon" viewBox="0 0 1024 1024" version="1.1" xmlns="http://www.w3.org/2000/svg" p-id="25845" xmlns:xlink="http://www.w3.org/1999/xlink" width="200" height="200"><path d="M286.313561 355.182359a56.224035 56.224035 0 0 1-57.353032 52.385447h-1.128996a56.224035 56.224035 0 0 1-57.578832-52.385447v-12.193164a133.899008 133.899008 0 0 0 78.126571-29.353914 65.481808 65.481808 0 0 0 38.385888 27.32172zM267.572216 284.732966a15.128556 15.128556 0 0 0-11.967365-12.870562 14.451158 14.451158 0 0 0-15.805954 7.225578 92.351929 92.351929 0 0 1-71.126791 34.0957 51.933848 51.933848 0 0 1 14.902756-37.031091 58.933627 58.933627 0 0 1 42.450276-18.063947h4.515987a58.933627 58.933627 0 0 1 42.450275 18.063947 52.159647 52.159647 0 0 1 14.676957 33.418302 34.547299 34.547299 0 0 1-20.096141-24.837927zM505.11312 318.828666L316.119074 523.177067a45.159868 45.159868 0 0 0-11.967365 30.482911v227.154134H153.54355v-223.992943a14.902756 14.902756 0 0 0-29.805513 0v179.284674a14.902756 14.902756 0 0 1-29.805512 0v-209.090187a45.159868 45.159868 0 0 1 45.159868-45.159868h151.962954a42.676075 42.676075 0 0 0 31.611908-13.096361l166.865711-166.639912a11.515766 11.515766 0 0 1 16.031753 0 11.741566 11.741566 0 0 1-0.451599 16.709151z" fill="#F3E528" p-id="25846"></path><path d="M294.668137 255.379052a88.964939 88.964939 0 0 0-64.127012-27.095921H225.799338a90.319735 90.319735 0 0 0-64.127012 27.095921 81.287762 81.287762 0 0 0-22.579933 60.965821l1.580595 40.192282a85.803749 85.803749 0 0 0 87.384344 80.836164h1.128997A85.803749 85.803749 0 0 0 316.119074 356.537155l1.806395-40.418081a82.416759 82.416759 0 0 0-23.257332-60.740022z m-8.354576 99.803307a56.224035 56.224035 0 0 1-57.353032 52.385447h-1.128996a56.224035 56.224035 0 0 1-57.578832-52.385447v-12.193164a133.899008 133.899008 0 0 0 78.126571-29.353914 65.481808 65.481808 0 0 0 38.385888 27.32172z m-18.741345-70.449393a15.128556 15.128556 0 0 0-11.967365-12.870562 14.451158 14.451158 0 0 0-15.805954 7.225578 92.351929 92.351929 0 0 1-71.126791 34.0957 51.933848 51.933848 0 0 1 14.902756-37.031091 58.933627 58.933627 0 0 1 42.450276-18.063947h4.515987a58.933627 58.933627 0 0 1 42.450275 18.063947 52.159647 52.159647 0 0 1 14.676957 33.418302 34.547299 34.547299 0 0 1-20.096141-24.837927zM877.23043 613.722602A90.319735 90.319735 0 0 0 812.877619 587.07828h-4.515987a88.513341 88.513341 0 0 0-63.223815 26.644322 82.868357 82.868357 0 0 0-22.579934 60.965821v40.192283a85.577949 85.577949 0 0 0 87.158545 80.836163 85.577949 85.577949 0 0 0 87.158544-80.836163l1.806395-40.192283a81.739361 81.739361 0 0 0-21.450937-60.965821z m-6.77398 59.836825l-1.806395 40.192282a55.998236 55.998236 0 0 1-57.353032 52.159647 55.998236 55.998236 0 0 1-57.353032-52.159647l-1.806395-40.418082a51.933848 51.933848 0 0 1 14.902757-38.837486 58.707828 58.707828 0 0 1 42.450275-17.838148H812.877619a58.707828 58.707828 0 0 1 42.450275 17.838148 52.611246 52.611246 0 0 1 15.128556 39.063286z" fill="#009EE7" p-id="25847"></path><path d="M525.435061 281.120176a41.772878 41.772878 0 0 0-57.578832 0l-166.639911 166.865712a15.805954 15.805954 0 0 1-10.612569 4.290187H138.640794a74.739581 74.739581 0 0 0-74.513782 74.739581v209.090187a45.159868 45.159868 0 0 0 45.159868 45.159868 47.86946 47.86946 0 0 0 14.902756-2.483793v17.386549a15.128556 15.128556 0 0 0 14.902757 15.128556h179.284674a15.128556 15.128556 0 0 0 14.902757-15.128556V553.659978a14.225358 14.225358 0 0 1 4.064388-10.16097l189.445645-203.219405a41.547078 41.547078 0 0 0-1.354796-59.159427z m-20.321941 37.70849L316.119074 523.177067a45.159868 45.159868 0 0 0-11.967365 30.482911v227.154134H153.54355v-223.992943a14.902756 14.902756 0 0 0-29.805513 0v179.284674a14.902756 14.902756 0 0 1-29.805512 0v-209.090187a45.159868 45.159868 0 0 1 45.159868-45.159868h151.962954a42.676075 42.676075 0 0 0 31.611908-13.096361l166.865711-166.639912a11.515766 11.515766 0 0 1 16.031753 0 11.741566 11.741566 0 0 1-0.451599 16.709151z" fill="#009EE7" p-id="25848"></path><path d="M228.283131 496.758545a14.902756 14.902756 0 0 0-14.902756 14.902756v179.058875a14.902756 14.902756 0 1 0 29.805513 0v-178.607276a14.676957 14.676957 0 0 0-14.902757-15.354355zM548.466593 613.722602A88.513341 88.513341 0 0 0 484.56538 587.07828h-4.741786a88.513341 88.513341 0 0 0-63.901213 27.095921 81.96516 81.96516 0 0 0-22.579933 60.965821l1.806394 40.192282a85.577949 85.577949 0 0 0 87.158545 80.836163h1.128997a85.577949 85.577949 0 0 0 87.158544-80.836163l1.806395-40.192282a82.868357 82.868357 0 0 0-23.93473-61.41742zM541.918412 673.559427l-1.806394 40.192282a55.998236 55.998236 0 0 1-57.353032 52.159647h-1.128997a55.998236 55.998236 0 0 1-57.353032-52.159647l-1.806395-40.418082a51.933848 51.933848 0 0 1 14.902757-38.837486 58.707828 58.707828 0 0 1 42.450275-17.838148h4.741786a59.159427 59.159427 0 0 1 42.450276 17.838148 52.611246 52.611246 0 0 1 14.902756 39.063286zM559.304961 810.845424h-154.220948a72.029989 72.029989 0 0 0-72.255788 72.029989v62.320618a14.902756 14.902756 0 1 0 29.805513 0V882.875413a42.450276 42.450276 0 0 1 42.450275-42.224476h154.220948a42.450276 42.450276 0 0 1 42.450276 42.224476v62.320618a14.902756 14.902756 0 0 0 29.805513 0V882.875413a72.029989 72.029989 0 0 0-72.255789-72.029989zM887.842999 810.845424h-154.220948a72.029989 72.029989 0 0 0-72.255789 72.029989v62.320618a14.902756 14.902756 0 0 0 29.805513 0V882.875413a42.450276 42.450276 0 0 1 42.450276-42.224476h154.220948a42.450276 42.450276 0 0 1 42.450276 42.224476v62.320618a14.902756 14.902756 0 1 0 29.805512 0V882.875413a72.029989 72.029989 0 0 0-72.255788-72.029989zM916.067916 64.127012H391.761852a45.159868 45.159868 0 0 0-45.159867 45.159868v223.992944a14.902756 14.902756 0 1 0 29.805512 0V153.54355H930.293275v358.56935a14.902756 14.902756 0 0 1-14.225359 14.902756H406.438809a14.902756 14.902756 0 0 0 0 29.805513h509.629107a45.159868 45.159868 0 0 0 45.159868-45.159868V108.835281a45.159868 45.159868 0 0 0-45.159868-44.708269z m14.225359 59.611025H377.536494v-14.902756a14.676957 14.676957 0 0 1 14.225358-14.902756h524.306064a14.676957 14.676957 0 0 1 14.225359 14.902756z" fill="#009EE7" p-id="25849"></path><path d="M920.132304 190.348842L894.616979 164.833517a9.935171 9.935171 0 0 0-7.902977-2.709592 10.38677 10.38677 0 0 0-7.225579 4.515987l-38.160088 63.901213a6.096582 6.096582 0 0 0 0 3.16119l-18.289746 90.319736-37.48269 13.54796 22.579933-32.966703a8.580375 8.580375 0 0 0 1.580596-4.741787l6.096582-79.029768 54.64344-48.546858a9.935171 9.935171 0 0 0 0-13.999559l-33.192503-31.611907a9.709372 9.709372 0 0 0-7.902977-2.935392 10.38677 10.38677 0 0 0-7.225579 4.515987l-45.159867 70.223595a11.289967 11.289967 0 0 0 0 2.935391l-18.741345 81.513561-41.772878 65.481808-55.320838 11.064168a41.547078 41.547078 0 0 0-71.57839 41.772877l-60.288424 10.160971a9.483572 9.483572 0 0 0-8.128776 9.483572v25.515325a9.935171 9.935171 0 0 0 3.38699 7.225579 10.16097 10.16097 0 0 0 7.902977 2.257993l90.319736-16.031753-4.064389 10.612569-71.126791 11.967365a9.483572 9.483572 0 0 0-8.128776 9.483572V496.758545a9.257773 9.257773 0 0 0 3.38699 7.225578 8.806174 8.806174 0 0 0 6.322381 2.483793h1.128997l95.964719-12.644763a9.935171 9.935171 0 0 0 6.77398-4.515987l42.224476-66.159206 59.159427-6.096582a9.483572 9.483572 0 0 0 3.612789 0l95.73892-51.25645a9.031974 9.031974 0 0 0 4.967585-6.77398l18.741345-105.89989L920.583903 203.219405a9.709372 9.709372 0 0 0-0.451599-12.870563z m-293.53914 286.99096l-67.739801 9.031973v-6.322381l62.998015-10.38677zM539.660419 429.018743l65.030209-10.838368a39.740684 39.740684 0 0 0 8.354576 3.838589l-73.384785 12.870562z m69.997795-30.70871a22.579934 22.579934 0 0 0 18.967144-22.579934V361.278942a22.579934 22.579934 0 1 1-18.967144 37.031091z m-6.548181-18.967144a22.579934 22.579934 0 0 1 6.096582-12.193165v9.031974a3.161191 3.161191 0 0 1-3.161191 3.161191z m63.449614-1.580596l49.901654-10.16097 20.096141 32.289305-48.321058 4.967586a9.483572 9.483572 0 0 0-7.225579 4.290187l-37.256891 58.707828-7.677178-10.16097 16.483352-43.805072a41.772878 41.772878 0 0 0 14.225359-31.386108 33.418302 33.418302 0 0 0 0.451598-4.741786z m132.318413-176.800882l33.192502-52.385446 16.257553 16.257552-45.159868 39.514884z m-21.225138 79.932966l14.225358-61.41742 2.935391 1.806395-4.515986 64.352811z m-25.063727 81.96516a9.483572 9.483572 0 0 0 10.838368 3.161191l63.449615-22.579934 8.128776 11.064167-77.900772 41.547079-23.93473-38.385888 37.031092-58.482029 13.54796 5.419185-31.611908 47.64366a9.483572 9.483572 0 0 0 0.451599 10.612569z m147.672768-165.059316l-33.192503 37.934288-4.515987-3.16119 27.095921-45.159868z" fill="#009EE7" p-id="25850"></path></svg>